<?xml version="1.0" encoding="UTF-8"?>
<svg width="170px" height="32px" viewBox="0 0 97 32" version="1.1" xmlns="http://www.w3.org/2000/svg" xmlns:xlink="http://www.w3.org/1999/xlink">
    <!-- Generator: Sketch 49 (51002) - http://www.bohemiancoding.com/sketch -->
    <title>logo</title>
    <desc>Created with Sketch.</desc>
    <defs></defs>
    <g id="Symbols" stroke="none" stroke-width="1" fill="none" fill-rule="evenodd">
        <g id="header" transform="translate(-83.000000, -21.000000)">
            <g id="logo">
                <g transform="translate(83.000000, 21.000000)">
                    <g id="logo_etp">
                        <rect id="bg" fill="#D8D8D8" opacity="0" x="0" y="0" width="32" height="32"></rect>
                        <path d="M26.596742,18.6728185 C26.7679278,19.1899789 27.2132482,20.501115 25.5013903,21.6400636 C25.7752282,22.812792 24.37103,24.0548737 23.0700773,24.6413874 C23.0362555,25.5038196 20.4681719,27.7458444 16.0514598,27.7458444 C11.6344509,27.7458444 9.13579102,25.9175479 9.13579102,25.9175479 C9.92259298,26.2625208 12.9357003,27.1252519 15.7090882,27.1252519 C19.9546146,27.0564965 21.4611682,25.2969554 21.4611682,25.2969554 C21.4611682,25.2969554 18.61895,26.1593876 14.4766691,25.9522246 C10.7788186,25.8147137 6.7391899,23.6752242 6.7391899,23.6752242 C6.7391899,23.6752242 6.29327613,23.2961725 6.39652163,23.020553 C7.01273116,23.2614959 9.7172887,24.6070097 14.0313487,25.1591457 C18.3451121,25.7109827 21.632354,24.2623357 21.632354,24.2623357 C21.632354,24.2623357 21.1873303,23.5717921 20.776425,23.3655258 C18.4136457,23.9514416 15.1614123,23.9861183 11.7029846,23.46836 C8.24485352,22.9511997 4.88967129,20.3982808 4.88967129,20.3982808 C4.88967129,20.3982808 4.44464756,19.9154981 4.78672247,19.7086339 C5.71148177,20.260471 8.34750566,22.0543897 12.6274472,22.7446344 C16.9070921,23.4342813 19.2013377,22.916523 19.7145984,22.5712512 C19.2013377,22.2612539 14.9896332,21.6744413 11.6341542,20.9151422 C8.27867532,20.156441 6.01914151,18.8802805 4.99202675,17.948495 C3.96491198,17.0176063 3.86255652,15.4643316 4.5811215,14.3956331 C4.51288453,14.0509591 3.82754799,12.8432551 5.6432448,11.9120675 C5.60823627,11.2562005 4.71818881,10.0144177 7.52569517,8.70328164 C7.76600799,7.11652597 10.4702688,5.11544412 14.7843289,4.56360709 C19.1328041,3.97769128 21.3579227,5.90882196 21.3579227,5.90882196 C21.3579227,5.90882196 18.8589661,4.97763433 15.2296493,5.25355285 C11.8741704,5.25355285 9.06666401,7.94398258 9.06666401,7.94398258 C9.06666401,7.94398258 10.7785219,6.70249873 15.9482143,6.21911819 C21.1520251,6.01285191 23.8912945,7.7377163 23.8912945,7.7377163 L24.0965987,8.08239025 C23.1041958,7.7377163 19.7487169,6.97871618 16.0849849,7.01339283 C12.4221429,7.04777055 8.82664787,9.22133884 8.82664787,9.22133884 L8.89488485,9.66974379 C8.89488485,9.66974379 8.79282607,9.98063789 9.13519766,9.87660794 C9.47756925,9.7734748 12.3874311,8.01363482 17.5918352,8.11736583 C22.795646,8.22079791 25.4663818,9.91098566 25.4663818,9.91098566 C25.4663818,9.91098566 25.8087534,10.3943662 25.6378642,10.3943662 C23.4803892,9.56631172 20.2619776,8.84168931 17.043566,8.84168931 C13.8251544,8.84168931 10.2305494,10.4977983 10.2305494,10.4977983 L11.6000358,11.0496353 C11.6000358,11.0496353 13.9622217,10.0493933 18.8924913,10.187502 C23.8227608,10.3250129 26.8020463,12.7744997 26.8020463,12.7744997 C26.8020463,12.7744997 26.9044018,12.8432551 26.8702833,13.0504182 C24.5760376,11.9120675 21.3238042,11.084013 18.8924913,10.9112276 C16.4617716,10.7390401 13.8251544,11.532119 13.8251544,11.532119 C13.8251544,11.532119 16.3588228,11.8773909 20.4678753,12.7398231 C24.8498756,13.3953911 27.1097061,16.1207964 27.1097061,16.1207964 C27.8635763,17.2932259 27.007944,18.052226 26.596742,18.6728185 Z M25.5007969,19.5531869 C25.5007969,19.5531869 24.439267,20.1229601 24.5763343,20.1229601 C24.7136983,20.2951476 25.0560699,20.6747972 25.0560699,20.6747972 C25.8259609,20.4332564 25.5007969,19.5531869 25.5007969,19.5531869 Z M22.9333067,23.676121 C23.6180499,23.227716 23.858066,22.8830421 23.926303,22.5033926 C23.6859902,22.6409034 22.1797332,22.9174198 22.3850375,22.9517975 C22.5909351,22.9861752 22.9333067,23.676121 22.9333067,23.676121 Z M23.6524651,21.5028516 C23.5159911,21.020069 22.8306546,20.6747972 22.8306546,20.6747972 C22.8306546,20.6747972 21.2558639,21.3303652 20.3311046,21.4340962 C21.1190933,21.7790691 21.5297019,22.2621507 21.5297019,22.2621507 C21.5294052,22.2621507 23.3100935,21.7443924 23.6524651,21.5028516 Z M5.31244383,15.6726904 C5.31244383,15.6726904 5.01576134,16.2478445 5.44951114,16.707609 C5.88266757,17.1673736 7.1153833,18.4318756 11.3840509,19.444374 C15.6524218,20.4565734 18.7794552,20.8703017 21.1306639,20.1573378 C21.3131237,20.0425462 21.0392857,19.9959121 21.0392857,19.9959121 C21.0392857,19.9959121 15.1732796,18.7780442 13.3469022,18.4557905 C11.5205248,18.1329389 6.86438991,17.0986182 5.63167418,15.6269531 L5.31244383,15.6726904 Z M5.71177846,13.6716086 C6.00252729,13.3786507 6.55020316,13.1197715 6.55020316,13.1197715 C6.55020316,13.1197715 6.36210646,12.9990011 6.20812825,12.6366899 C5.81413391,12.7577593 5.71177846,13.6716086 5.71177846,13.6716086 Z M19.5327321,18.1792741 C20.9019217,18.4782107 23.344212,19.3523015 23.344212,19.3523015 C23.344212,19.3523015 24.7365429,18.7771474 24.6911504,18.6850749 C24.6451647,18.5924045 23.5044205,17.9951291 21.8376583,17.4663102 C20.1714894,16.9377903 12.86687,15.5578987 11.2698281,15.2586632 C9.67159959,14.9597265 7.61707338,13.8787716 7.61707338,13.8787716 L6.63564772,14.6141558 C7.20646482,15.3958751 9.87690387,16.2015093 9.87690387,16.2015093 C11.6804367,16.7987847 18.094712,17.8343012 19.5327321,18.1792741 Z M6.8578629,10.687623 L6.84065531,10.9635416 C6.89227807,10.6705837 7.79893974,10.48046 7.79893974,10.48046 L7.45686484,9.85956856 L6.8578629,10.687623 Z M7.43965725,11.9634846 C7.64496153,12.2223637 7.91909615,12.4298258 7.91909615,12.4298258 C8.55221657,11.9814208 9.11710003,11.8433121 9.63095409,11.7225417 C9.34020526,11.6014723 8.58663174,11.1874451 8.58663174,11.1874451 C8.58663174,11.1874451 7.55951698,11.6358501 7.43965725,11.9634846 Z M9.44256071,13.1194726 C9.71639865,13.2115451 11.4742424,13.8778748 13.2549307,14.2001285 C17.1577888,14.7985997 20.4287132,15.415007 22.2473768,15.9937484 C24.4161258,16.684292 25.6948273,17.7425277 25.6948273,17.7425277 C25.6948273,17.7425277 25.7173752,17.60412 25.739923,16.5925184 C23.7770717,14.3845724 16.2446001,13.3263367 14.7611876,13.0501193 C13.2771818,12.7744997 11.1544187,12.2914181 11.1544187,12.2914181 L9.44256071,13.1194726 Z" id="Shape" fill="#316DA4"></path>
                        <path d="M0.0175259342,16.1178049 C0.0175259342,7.34796436 7.1271183,0.238892531 15.8982696,0.237396073 C24.6694208,0.238892531 31.7793125,7.34796436 31.7793125,16.1178049 C31.7793125,24.8876455 24.6697202,31.9967173 15.8985689,31.9982138 C7.12741762,31.9967173 0.0175259342,24.8876455 0.0175259342,16.1178049 Z M0.679635159,16.1178049 C0.696397418,24.5213126 7.49409204,31.3194205 15.8988682,31.3337865 C24.3039437,31.3194205 31.102237,24.5213126 31.1172033,16.1178049 C31.102237,7.7142972 24.3036444,0.916787857 15.8988682,0.901823281 C7.49349338,0.916787857 0.695798766,7.7142972 0.679635159,16.1178049 Z" id="Shape" fill="#316DA4"></path>
                    </g>
                    <text id="Биллинг" font-family="PTSans-Narrow, PT Sans Narrow" font-size="19" font-style="condensed" font-weight="normal" line-spacing="17" fill="#005DB2">
                        <tspan x="42" y="19">Биллинг</tspan>
                    </text>
                    <text id="Биллинг" font-family="Roboto-Regular, Roboto" font-size="9" font-weight="normal" fill="#999999">
                        <tspan x="42" y="30">Биллинг</tspan>
                    </text>
                </g>
            </g>
        </g>
    </g>
</svg>